<?xml version="1.0" encoding="utf-8"?>
<!-- Generator: Adobe Illustrator 21.1.0, SVG Export Plug-In . SVG Version: 6.00 Build 0)  -->
<svg version="1.1" id="Layer_1" xmlns="http://www.w3.org/2000/svg" xmlns:xlink="http://www.w3.org/1999/xlink" x="0px" y="0px"
	 viewBox="0 0 1024 420" style="enable-background:new 0 0 1024 420;" xml:space="preserve">
<style type="text/css">
	.st0{fill:#FFFFFF;}
</style>
<g>
	<path class="st0" d="M31.5,169.7h10.7c0.1-15.7,0.3-25,0.8-27.9c0.8-6.6,3.6-11.8,8.3-15.7c4.7-3.9,11.4-5.8,20.1-5.8
		c6.2,0,13.3,1.4,21.1,4.3v22.9c-4.3-1.2-7.9-1.9-10.7-1.9c-3.5,0-6.1,0.7-7.7,2.2c-1.2,1.1-1.8,3.4-1.8,6.8l-0.1,15h19.1v25.5H72.3
		v94.4H42.2v-94.4H31.5V169.7z"/>
	<path class="st0" d="M102.2,169.7h25.8v15.1c2.8-5.9,6.5-10.5,11.1-13.5c4.6-3.1,9.7-4.6,15.2-4.6c3.9,0,8,1,12.2,3.1l-9.4,25.9
		c-3.5-1.8-6.4-2.6-8.7-2.6c-4.6,0-8.5,2.9-11.7,8.6c-3.2,5.7-4.8,17-4.8,33.7l0.1,5.8v48.5h-29.9V169.7z"/>
	<path class="st0" d="M248.1,169.7h30.1v119.8h-30.1v-12.7c-5.9,5.6-11.8,9.6-17.7,12.1c-5.9,2.5-12.3,3.7-19.2,3.7
		c-15.5,0-28.9-6-40.2-18c-11.3-12-16.9-26.9-16.9-44.8c0-18.5,5.5-33.7,16.4-45.5c10.9-11.8,24.2-17.7,39.8-17.7
		c7.2,0,13.9,1.4,20.2,4.1c6.3,2.7,12.1,6.8,17.5,12.2V169.7z M216.5,194.4c-9.3,0-17,3.3-23.2,9.9c-6.1,6.6-9.2,15-9.2,25.3
		c0,10.3,3.1,18.9,9.4,25.6s14,10,23.1,10c9.4,0,17.3-3.3,23.5-9.9c6.2-6.6,9.3-15.2,9.3-25.8c0-10.4-3.1-18.9-9.3-25.3
		S226,194.4,216.5,194.4z"/>
	<path class="st0" d="M295.5,169.7h30.1V182c6.8-5.7,13-9.7,18.5-12c5.5-2.2,11.2-3.4,17-3.4c11.9,0,22,4.2,30.2,12.4
		c7,7,10.4,17.5,10.4,31.3v79.2h-29.7v-52.5c0-14.3-0.6-23.8-1.9-28.5c-1.3-4.7-3.5-8.3-6.7-10.7c-3.2-2.5-7.1-3.7-11.8-3.7
		c-6.1,0-11.3,2-15.7,6.1c-4.4,4.1-7.4,9.7-9.1,16.9c-0.9,3.7-1.3,11.8-1.3,24.3v48.1h-30.1V169.7z"/>
	<path class="st0" d="M418.5,104.7l30.1,4.6v109.8l44.3-49.4h37.8L479,227.2l57.8,62.4h-37.3l-50.9-55.2v55.2h-30.1V104.7z"/>
	<path class="st0" d="M541.1,123.5l30.1,4.6v161.5h-30.1V123.5z"/>
</g>
<g>
	<path class="st0" d="M777.1,228.4c0.8-2.8,1.9-8,3.2-14.1H811c1.7,0,3.1-1.2,3.5-2.8l3.4-14.9c0.5-2.2-1.2-4.4-3.5-4.4h-29.7
		c1.6-8.2,3-15.5,3.8-19.1h32.1c1.7,0,3.1-1.2,3.5-2.8l3.4-14.9c0.5-2.2-1.2-4.4-3.5-4.4h-31.2c1.8-9,3.9-18.8,5.4-24.6
		c0.5-2.1,1.4-4.1,2.4-6c0.4-0.8,1.6-1.7,2.3-1.6c5.5,0.8,16.4,1,21.9,1c40.5,0,65.7-16.6,65.7-43.5c0-24.1-25-38.8-45.3-38.8
		c-25.7,0-41.5,9-52.6,31.1c-2.9,5.7-5.9,14.1-7.3,20.3c-0.9,4-0.8,6.8-4.6,5.8c-21.6-5.7-53.6-24.6-99.4-24.6
		c-31.6,0-60.1,26.7-60.1,56.6c0,20.3,8.7,36.1,20.7,36.1c7.8,0,13.8-4.4,13.8-10.7c0-10.5-11.8-15.2-11.8-34.2
		c0-12.5,18.8-28.4,40.9-28.4c29.4,0,49.3,9.5,71.4,17.3c5.5,1.9,20.4,7.6,19.6,12.3c-1.9,10.7-3.9,21.4-6,32.1h-33.2
		c-1.7,0-3.1,1.2-3.5,2.8l-3.4,14.9c-0.5,2.2,1.2,4.4,3.5,4.4h32.1c-0.2,0.9-0.4,1.8-0.6,2.7c-0.6,2.6-2,8.8-3.9,16.4h-34
		c-1.7,0-3.1,1.2-3.5,2.8l-3.4,14.9c-0.5,2.2,1.2,4.4,3.5,4.4h32c-3.6,14.5-6.9,28-7.6,30.4c-1.6,5.7-3.6,12.8-6.5,18
		c-6.2,10.9-19.5,19.9-41.1,19.9c-35,0-32.2-38.9-24.1-40.9c2.2-0.5,4.5-0.1,6.8,0c4,0.1,7.7-5.6,7.7-9.6c0-7.9-8.7-11.9-17.4-11.9
		c-16.8,0-26.7,13.6-26.7,36.1c0,20.8,22.1,47.2,52.3,47.2c21.4,0,31.7-3.2,42.1-8.8C767.3,280.6,770.5,252.3,777.1,228.4z
		 M808.7,94.3c4.3-18,11.7-37,31.1-37c13.9,0,26.4,5.9,26.4,15.8c0,11.2-10.4,19-18.4,22.5c-11,4.9-24.1,4.2-35.8,3.3
		C809.3,98.8,808,97,808.7,94.3z"/>
	<path class="st0" d="M946.5,289.1c-6.4,0-13.5,4.5-13.5,13.5c0,8.1,11,9.4,14.7,9.4c7.9,0,22.3,6.3,22.3,20.2
		c0,18.8-11.6,26.4-28.7,26.4c-17.1,0-82.2-28-95.5-33.1c-3-1.2-5.9-2.8-5.1-6.6L877,150.7c1.3-5.8-2.4-11.5-8.2-12.8l-2-0.4
		c-5.8-1.3-11.5,2.4-12.8,8.2l-35.4,163.9c-0.5,2.4-3,3.8-5.3,2.9c-33.4-11.9-84.2-6-84.2,37.5c0,21.7,24.5,32.2,41.4,32.2
		c30.7,0,52-16.9,62.8-38c1.8-3.5,7.3-0.4,13.4,2.4c29.3,13.5,72.2,34.1,97.8,34.1c21.7,0,47.1-15.8,47.1-45.2
		C991.5,305,971.7,289.1,946.5,289.1z M809.7,334.8c-5.6,15.1-21.3,26.5-35.2,26.5c-8.8,0-21.6-5.6-21.6-15.5
		c0-12.1,11.5-20.4,26-20.4c10.9,0,18.6,1.4,29.4,6.1C810.4,332.4,810.5,332.6,809.7,334.8z"/>
</g>
</svg>
